<svg width="38" height="30" viewBox="0 0 38 30" fill="none" xmlns="http://www.w3.org/2000/svg">
<g filter="url(#filter0_d)">
<path d="M19 0C10.75 0 4 6.76205 4 15.0904C4 22.6205 9.48999 28.8705 16.66 30V19.4578H12.85V15.0904H16.66V11.762C16.66 7.98193 18.895 5.90361 22.33 5.90361C23.965 5.90361 25.675 6.18976 25.675 6.18976V9.90964H23.785C21.925 9.90964 21.34 11.0693 21.34 12.259V15.0904H25.51L24.835 19.4578H21.34V30C24.8746 29.4395 28.0933 27.6288 30.4149 24.8947C32.7364 22.1606 34.008 18.6832 34 15.0904C34 6.76205 27.25 0 19 0Z" fill="#CACACA"/>
</g>
<defs>
<filter id="filter0_d" x="0" y="0" width="38" height="38" filterUnits="userSpaceOnUse" color-interpolation-filters="sRGB">
<feFlood flood-opacity="0" result="BackgroundImageFix"/>
<feColorMatrix in="SourceAlpha" type="matrix" values="0 0 0 0 0 0 0 0 0 0 0 0 0 0 0 0 0 0 127 0" result="hardAlpha"/>
<feOffset dy="4"/>
<feGaussianBlur stdDeviation="2"/>
<feComposite in2="hardAlpha" operator="out"/>
<feColorMatrix type="matrix" values="0 0 0 0 0 0 0 0 0 0 0 0 0 0 0 0 0 0 0.25 0"/>
<feBlend mode="normal" in2="BackgroundImageFix" result="effect1_dropShadow"/>
<feBlend mode="normal" in="SourceGraphic" in2="effect1_dropShadow" result="shape"/>
</filter>
</defs>
</svg>
