<svg width="17" height="17" fill="none" xmlns="http://www.w3.org/2000/svg"><path d="m16.444 14.688-3.212-2.747a6.968 6.968 0 0 0 1.456-4.285c0-1.88-.734-3.642-2.06-4.97A6.98 6.98 0 0 0 7.655.624a6.99 6.99 0 0 0-4.97 2.06A6.975 6.975 0 0 0 .624 7.656c0 1.878.734 3.645 2.06 4.971a6.975 6.975 0 0 0 4.971 2.06 6.97 6.97 0 0 0 4.282-1.453l3.212 2.745a.193.193 0 0 0 .272 0l1.022-1.02a.195.195 0 0 0 .056-.136.193.193 0 0 0-.056-.136zm-5.075-3.32a5.222 5.222 0 0 1-3.713 1.538 5.222 5.222 0 0 1-3.712-1.537 5.222 5.222 0 0 1-1.538-3.713c0-1.401.546-2.72 1.538-3.712a5.222 5.222 0 0 1 3.712-1.538c1.402 0 2.721.544 3.713 1.538a5.222 5.222 0 0 1 1.537 3.712 5.218 5.218 0 0 1-1.537 3.713z" fill="#fff"/></svg>